<svg width="195" height="40" viewBox="0 0 195 40" fill="none" xmlns="http://www.w3.org/2000/svg">
<rect x="2.5" y="2.5" width="35" height="35" fill="#3AA2D3" stroke="#3AA2D3"/>
<rect x="8" y="8.5" width="8.43243" height="8.43243" fill="white"/>
<path d="M16.4404 16.9268L24.4521 8.91406C28.8116 10.1754 32 14.1941 32 18.96H23.5674C23.5674 17.8406 22.6603 16.9329 21.541 16.9326H16.4326V31.6895H8V8.5H8.01367L16.4404 16.9268Z" fill="white"/>
<path d="M44.8849 25.5V15.3182H48.902C49.6709 15.3182 50.3272 15.4557 50.8707 15.7308C51.4176 16.0026 51.8336 16.3887 52.1186 16.8892C52.407 17.3864 52.5511 17.9714 52.5511 18.6442C52.5511 19.3203 52.4053 19.902 52.1136 20.3892C51.822 20.8731 51.3994 21.2443 50.8459 21.5028C50.2957 21.7614 49.6295 21.8906 48.8473 21.8906H46.1577V20.1605H48.4993C48.9103 20.1605 49.2517 20.1042 49.5234 19.9915C49.7952 19.8788 49.9974 19.7098 50.13 19.4844C50.2659 19.259 50.3338 18.9789 50.3338 18.6442C50.3338 18.3061 50.2659 18.0211 50.13 17.7891C49.9974 17.5571 49.7936 17.3814 49.5185 17.2621C49.2467 17.1394 48.9036 17.0781 48.4893 17.0781H47.0376V25.5H44.8849ZM50.3835 20.8665L52.9141 25.5H50.5376L48.0618 20.8665H50.3835ZM55.9724 25.5V15.3182H62.8332V17.093H58.1251V19.5192H62.4803V21.294H58.1251V23.7251H62.8531V25.5H55.9724ZM75.4284 18.8828H73.2508C73.211 18.6011 73.1298 18.3509 73.0072 18.1321C72.8846 17.91 72.7271 17.7211 72.5349 17.5653C72.3427 17.4096 72.1206 17.2902 71.8687 17.2074C71.6201 17.1245 71.35 17.0831 71.0583 17.0831C70.5314 17.0831 70.0723 17.214 69.6812 17.4759C69.2901 17.7344 68.9868 18.1122 68.7714 18.6094C68.556 19.1032 68.4483 19.7031 68.4483 20.4091C68.4483 21.1349 68.556 21.7448 68.7714 22.2386C68.9902 22.7325 69.2951 23.1054 69.6862 23.3572C70.0773 23.6091 70.5297 23.7351 71.0434 23.7351C71.3318 23.7351 71.5986 23.697 71.8439 23.6207C72.0924 23.5445 72.3128 23.4335 72.5051 23.2876C72.6973 23.1385 72.8564 22.9579 72.9824 22.7457C73.1116 22.5336 73.2011 22.2917 73.2508 22.0199L75.4284 22.0298C75.372 22.4972 75.2312 22.9479 75.0058 23.3821C74.7837 23.813 74.4838 24.1991 74.1059 24.5405C73.7314 24.8786 73.284 25.147 72.7636 25.3459C72.2466 25.5414 71.6616 25.6392 71.0086 25.6392C70.1005 25.6392 69.2885 25.4337 68.5725 25.0227C67.86 24.6117 67.2965 24.0168 66.8822 23.2379C66.4712 22.459 66.2657 21.5161 66.2657 20.4091C66.2657 19.2988 66.4745 18.3542 66.8922 17.5753C67.3098 16.7964 67.8765 16.2031 68.5924 15.7955C69.3083 15.3845 70.1137 15.179 71.0086 15.179C71.5986 15.179 72.1455 15.2618 72.6493 15.4276C73.1564 15.5933 73.6055 15.8352 73.9966 16.1534C74.3877 16.4683 74.7058 16.8544 74.9511 17.3118C75.1997 17.7692 75.3588 18.2929 75.4284 18.8828ZM78.8721 25.5V15.3182H82.8891C83.658 15.3182 84.3143 15.4557 84.8578 15.7308C85.4047 16.0026 85.8207 16.3887 86.1057 16.8892C86.3941 17.3864 86.5382 17.9714 86.5382 18.6442C86.5382 19.3203 86.3924 19.902 86.1007 20.3892C85.8091 20.8731 85.3865 21.2443 84.833 21.5028C84.2828 21.7614 83.6166 21.8906 82.8344 21.8906H80.1448V20.1605H82.4864C82.8974 20.1605 83.2388 20.1042 83.5105 19.9915C83.7823 19.8788 83.9845 19.7098 84.1171 19.4844C84.253 19.259 84.3209 18.9789 84.3209 18.6442C84.3209 18.3061 84.253 18.0211 84.1171 17.7891C83.9845 17.5571 83.7807 17.3814 83.5056 17.2621C83.2338 17.1394 82.8908 17.0781 82.4765 17.0781H81.0248V25.5H78.8721ZM84.3706 20.8665L86.9012 25.5H84.5248L82.0489 20.8665H84.3706ZM96.2486 15.3182H98.4013V21.9304C98.4013 22.6728 98.224 23.3224 97.8694 23.8793C97.518 24.4361 97.0258 24.8703 96.3928 25.1818C95.7597 25.4901 95.0223 25.6442 94.1804 25.6442C93.3353 25.6442 92.5962 25.4901 91.9631 25.1818C91.3301 24.8703 90.8379 24.4361 90.4865 23.8793C90.1352 23.3224 89.9596 22.6728 89.9596 21.9304V15.3182H92.1122V21.7464C92.1122 22.1342 92.1968 22.4789 92.3658 22.7805C92.5381 23.0821 92.7801 23.3191 93.0917 23.4915C93.4032 23.6638 93.7661 23.75 94.1804 23.75C94.598 23.75 94.961 23.6638 95.2692 23.4915C95.5808 23.3191 95.8211 23.0821 95.9901 22.7805C96.1624 22.4789 96.2486 22.1342 96.2486 21.7464V15.3182ZM104.225 15.3182V25.5H102.072V15.3182H104.225ZM107.508 17.093V15.3182H115.871V17.093H112.754V25.5H110.626V17.093H107.508ZM119.148 25.5V15.3182H126.009V17.093H121.301V19.5192H125.656V21.294H121.301V23.7251H126.029V25.5H119.148ZM129.62 25.5V15.3182H133.637C134.406 15.3182 135.062 15.4557 135.606 15.7308C136.153 16.0026 136.569 16.3887 136.854 16.8892C137.142 17.3864 137.286 17.9714 137.286 18.6442C137.286 19.3203 137.14 19.902 136.849 20.3892C136.557 20.8731 136.135 21.2443 135.581 21.5028C135.031 21.7614 134.365 21.8906 133.582 21.8906H130.893V20.1605H133.234C133.645 20.1605 133.987 20.1042 134.259 19.9915C134.53 19.8788 134.733 19.7098 134.865 19.4844C135.001 19.259 135.069 18.9789 135.069 18.6442C135.069 18.3061 135.001 18.0211 134.865 17.7891C134.733 17.5571 134.529 17.3814 134.254 17.2621C133.982 17.1394 133.639 17.0781 133.224 17.0781H131.773V25.5H129.62ZM135.119 20.8665L137.649 25.5H135.273L132.797 20.8665H135.119ZM154.364 15.3182V25.5H152.505L148.075 19.0916H148.001V25.5H145.848V15.3182H147.737L152.132 21.7216H152.221V15.3182H154.364ZM159.798 25.5H157.491L161.006 15.3182H163.78L167.29 25.5H164.983L162.433 17.6449H162.353L159.798 25.5ZM159.654 21.4979H165.102V23.1783H159.654V21.4979ZM170.415 15.3182H173.07L175.874 22.1591H175.994L178.798 15.3182H181.452V25.5H179.364V18.8729H179.28L176.645 25.4503H175.223L172.588 18.848H172.503V25.5H170.415V15.3182ZM185.126 25.5V15.3182H191.987V17.093H187.279V19.5192H191.634V21.294H187.279V23.7251H192.007V25.5H185.126Z" fill="black"/>
</svg>
